<mxfile host="app.diagrams.net" modified="2024-06-01T11:53:47.037Z" agent="Mozilla/5.0 (Windows NT 10.0; Win64; x64) AppleWebKit/537.36 (KHTML, like Gecko) Chrome/125.0.0.0 Safari/537.36" version="24.4.13" etag="aWJqhe5ix8qnzfII8253" type="github">
  <diagram name="Page-1" id="dDvQA7PWo-lutNARHK1I">
    <mxGraphModel>
      <root>
        <mxCell id="0" />
        <mxCell id="1" parent="0" />
      </root>
    </mxGraphModel>
  </diagram>
</mxfile>
